
<svg width="147" height="144" viewBox="0 0 147 144" fill="none" xmlns="http://www.w3.org/2000/svg">
<g clip-path="url(#clip0_22_2)">
<path d="M83.1848 138.289C83.3716 140.296 82.967 141.989 81.4109 142.918C80.2594 143.615 79.1234 143.034 78.0653 142.238C77.3028 141.674 76.5403 141.109 75.7311 140.612C68.3396 136.049 60.917 131.104 53.541 126.541C49.9931 124.35 50.211 124.45 53.3076 121.944C57.5402 118.493 60.8547 119.09 65.5542 121.894C70.1602 124.649 73.5992 126.723 77.7385 129.378C81.193 131.236 82.9981 133.344 83.1848 138.289Z" fill="white"/>
<path d="M19.6479 114.314C18.1074 115.492 16.5201 115.956 14.9952 114.977C13.8592 114.247 13.7658 112.903 13.8748 111.543C13.9526 110.547 14.0304 109.568 14.0304 108.572C14.0615 99.4625 14.3883 90.1371 14.4349 81.0605C14.4505 76.6965 14.4816 76.9454 18.0607 78.5549C22.978 80.7618 24.145 84.1137 24.1917 89.855C24.254 95.4801 24.2851 99.6949 24.1606 104.839C24.394 108.971 23.5848 111.675 19.6479 114.314Z" fill="white"/>
<path d="M13.9506 47.0187C12.2389 46.1724 11.0718 44.9445 11.1029 43.0529C11.134 41.6424 12.1766 40.8791 13.3281 40.315C14.1684 39.9001 15.0087 39.4687 15.8179 38.9875C23.2406 34.4741 30.99 30.1432 38.3971 25.663C41.9605 23.5059 41.7738 23.6552 42.2407 27.7538C42.8942 33.3955 40.7468 36.1334 36.1096 39.0539C31.5657 41.9079 28.1423 44.0319 23.9097 46.4877C20.6574 48.7444 18.0432 49.3417 13.9506 47.0187Z" fill="white"/>
<path d="M60.9304 4.91381C60.7593 2.90601 61.1794 1.21349 62.7355 0.300855C63.9026 -0.379474 65.023 0.201296 66.0811 0.997778C66.8436 1.57855 67.6061 2.12613 68.3997 2.64053C75.7601 7.25349 83.1516 12.2647 90.4808 16.8942C94.0132 19.1177 93.7953 19.0182 90.6831 21.4906C86.4194 24.9088 83.1205 24.2949 78.4366 21.4408C73.8461 18.6531 70.4227 16.5624 66.3145 13.8576C62.8756 11.9826 61.086 9.85864 60.9304 4.91381Z" fill="white"/>
<path d="M124.2 29.316C125.74 28.1545 127.328 27.7064 128.853 28.6854C129.988 29.4156 130.066 30.7596 129.942 32.1203C129.848 33.1159 129.771 34.0949 129.771 35.0905C129.677 44.2002 129.288 53.5257 129.179 62.6023C129.133 66.9663 129.101 66.7174 125.538 65.0913C120.636 62.8512 119.5 59.4827 119.485 53.7414C119.469 48.1163 119.469 43.9015 119.609 38.7576C119.423 34.6425 120.263 31.9211 124.2 29.316Z" fill="white"/>
<path d="M129.517 96.7294C131.229 97.5757 132.381 98.8202 132.334 100.728C132.303 102.139 131.245 102.886 130.078 103.45C129.237 103.865 128.397 104.279 127.588 104.761C120.134 109.208 112.354 113.489 104.915 117.903C101.336 120.026 101.539 119.877 101.087 115.779C100.481 110.137 102.644 107.399 107.296 104.528C111.871 101.707 115.295 99.6166 119.558 97.194C122.811 94.9539 125.44 94.3731 129.517 96.7294Z" fill="white"/>
<path d="M36.0211 136.125C42.2455 136.125 47.3029 130.732 47.3029 124.095C47.3029 119.582 44.9532 115.633 41.4986 113.575C41.5608 102.955 41.592 92.3521 41.5453 81.7323C41.5297 78.8285 42.6501 77.501 44.8442 75.6426C46.1202 74.5474 47.1473 73.585 47.9564 72.6558C48.6878 71.8261 49.7926 71.4776 50.8352 71.7431L58.1023 73.5352C57.1841 70.1502 57.9778 66.4498 60.1719 63.8115L50.8352 61.505C50.4929 61.4221 50.1661 61.4221 49.8393 61.4718C49.4036 61.2893 48.7967 61.5382 48.0498 61.9862C45.7623 63.3967 38.2619 67.8603 36.768 68.8393C33.4535 70.9964 31.9752 72.971 32.0686 77.1857C32.302 89.05 32.3487 100.947 32.0219 112.812C27.7582 114.537 24.7393 118.935 24.7393 124.062C24.7238 130.732 29.7967 136.125 36.0211 136.125ZM31.9908 117.474C33.1423 116.678 34.5272 116.197 36.0211 116.197C38.1841 116.197 40.1137 117.176 41.4675 118.752C42.6812 120.163 43.4126 122.038 43.4126 124.079C43.4126 128.443 40.0981 131.96 36.0211 131.96C31.9285 131.96 28.6296 128.426 28.6296 124.079C28.614 121.324 29.9523 118.885 31.9908 117.474Z" fill="white"/>
<path d="M11.2812 76.0083C17.3344 76.0083 22.2984 70.8975 22.563 64.4925C31.246 59.249 39.9135 53.9889 48.5499 48.6458C50.8996 47.1856 52.5335 47.5673 55.1322 48.679C56.7661 49.376 58.1355 49.8572 59.3492 50.1392C60.4541 50.3881 61.3255 51.251 61.6367 52.396L63.6908 59.8464C65.5114 57.8883 67.9856 56.8264 70.5221 56.8264C71.2379 56.8264 71.9848 56.9093 72.6851 57.0919L69.9774 47.2354C69.8063 46.6215 69.4328 46.1237 68.966 45.8084C68.7481 45.4765 68.3435 45.1778 67.8145 44.846C65.527 43.4189 58.1666 38.723 56.6261 37.827C53.2182 35.8358 50.8841 35.4541 47.4917 37.6279C38.0929 43.6844 28.5695 49.5585 18.8905 55.1007C16.8832 53.1426 14.2067 51.9479 11.2812 51.9479C5.05679 51.9479 -0.000545668 57.3408 -0.000546248 63.9781C-0.000546828 70.6155 5.05679 76.0083 11.2812 76.0083ZM11.2812 56.0797C12.7128 56.0797 14.0511 56.5111 15.187 57.2744C17.2878 58.6682 18.6883 61.1406 18.6883 63.9781C18.6883 65.1396 18.4548 66.2514 18.0191 67.247C16.8521 69.9683 14.2689 71.8766 11.2812 71.8765C7.18865 71.8765 3.88971 68.3422 3.88971 63.9947C3.87415 59.6141 7.18865 56.0797 11.2812 56.0797Z" fill="white"/>
<path d="M47.2425 24.3201C49.4054 24.3201 51.4284 23.6729 53.1556 22.528C61.7142 27.9374 70.3039 33.3137 78.9247 38.6235C81.2744 40.0672 81.7723 41.7763 82.1769 44.7465C82.4259 46.5717 82.7216 48.0651 83.0795 49.3096C83.4063 50.438 83.1573 51.6659 82.4103 52.5288L77.3686 58.2535C80.5897 59.1163 83.1884 61.6883 84.1999 65.0567L90.7355 57.6063C91.109 57.1915 91.3268 56.6771 91.3579 56.1461L91.3579 56.1295C91.5291 55.7645 91.5758 55.2335 91.5758 54.5863C91.5914 51.7655 91.7625 42.6059 91.7158 40.7309C91.6225 36.5826 90.7822 34.2263 87.3276 32.1853C77.5553 26.3776 67.8608 20.404 58.3686 14.082C58.4464 13.4846 58.4931 12.8872 58.4931 12.2733C58.4931 5.63596 53.4202 0.243118 47.2113 0.243117C40.9869 0.243116 35.9296 5.63595 35.9296 12.2733C35.9296 18.9106 41.0181 24.3201 47.2425 24.3201ZM47.2425 4.40804C51.1483 4.40804 54.3539 7.64375 54.6184 11.7423C54.6339 11.9248 54.6339 12.1074 54.6339 12.2899C54.6339 15.9902 52.2531 19.0932 49.032 19.9394C48.4562 20.0888 47.8649 20.1717 47.2425 20.1717C43.1499 20.1717 39.851 16.6373 39.851 12.2899C39.8354 7.92583 43.1499 4.40804 47.2425 4.40804Z" fill="white"/>
<path d="M83.4989 79.8246L92.8512 82.1477C93.4269 82.2805 94.0027 82.1975 94.4851 81.932C94.7807 81.849 95.1386 81.6665 95.5277 81.4342C97.8307 80.0404 105.362 75.6431 106.872 74.6641C110.186 72.5236 111.68 70.5656 111.633 66.3508C111.478 54.2377 111.524 42.1079 111.96 29.9948C115.819 28.0866 118.496 23.905 118.496 19.0764C118.496 12.439 113.438 7.04619 107.214 7.04619C100.99 7.04619 95.9323 12.439 95.9323 19.0764C95.9323 23.905 98.6243 28.0866 102.483 29.9948C102.343 40.5814 102.235 51.1679 102.219 61.7545C102.203 64.6583 101.067 65.9692 98.8733 67.8111C97.5195 68.9394 96.4302 69.9516 95.6055 70.9306C94.8741 71.7603 93.7693 72.1087 92.7267 71.8598L85.6464 70.1175C86.5022 73.5026 85.7086 77.2029 83.4989 79.8246ZM99.7914 19.093C99.7914 14.7289 103.106 11.2111 107.183 11.2111C111.276 11.2111 114.574 14.7455 114.574 19.093C114.574 21.5488 113.516 23.7557 111.867 25.1993C110.591 26.3111 108.957 26.9914 107.183 26.9914C105.409 26.9914 103.775 26.3277 102.499 25.2159C100.85 23.7557 99.7914 21.5488 99.7914 19.093Z" fill="white"/>
<path d="M73.7265 96.4012C73.9287 97.1479 74.4423 97.7287 75.0491 98.0273L75.0647 98.0273C75.2359 98.1601 75.4226 98.2928 75.6405 98.4256C77.9124 99.8692 85.2416 104.631 86.7822 105.544C90.19 107.552 92.5086 107.967 95.9165 105.81C105.891 99.5042 116.006 93.3812 126.292 87.6565C128.066 88.901 130.182 89.6145 132.454 89.6145C138.678 89.6145 143.736 84.2217 143.736 77.5843C143.736 70.947 138.678 65.5541 132.454 65.5541C126.229 65.5541 121.172 70.947 121.172 77.5843C121.172 78.0821 121.203 78.5633 121.25 79.0445C112.458 84.2549 103.697 89.4818 94.9517 94.7916C92.5864 96.2353 90.9525 95.837 88.3694 94.7087C86.751 94.0117 85.3972 93.5305 84.199 93.2319C83.1253 92.9664 82.3006 92.1035 81.9894 90.9918L80.0287 83.8068C77.679 86.3124 74.2867 87.3578 71.0344 86.5779L73.7265 96.4012ZM132.438 69.6859C136.531 69.6859 139.83 73.2203 139.83 77.5677C139.83 81.9152 136.515 85.4496 132.438 85.4496C131.614 85.4496 130.804 85.3002 130.057 85.0347C127.132 83.9728 125.031 81.0357 125.031 77.5677C125.031 77.2856 125.047 77.0202 125.078 76.7381C125.467 72.7723 128.626 69.6859 132.438 69.6859Z" fill="white"/>
<path d="M52.1113 102.657C52.2203 106.805 53.0917 109.145 56.5618 111.169C66.7387 117.093 76.8534 123.232 86.7191 129.737C86.7036 129.936 86.7036 130.135 86.7036 130.334C86.7036 136.972 91.7765 142.364 97.9853 142.364C104.21 142.364 109.267 136.972 109.267 130.334C109.267 123.697 104.21 118.304 97.9853 118.304C95.4178 118.304 93.0525 119.217 91.1696 120.76C82.4554 115.35 73.7256 109.958 64.9492 104.648C62.5839 103.221 62.0704 101.512 61.6347 98.558C61.3702 96.7659 61.0901 95.3223 60.7322 94.0778C60.4054 92.966 60.6699 91.7713 61.4324 90.9251L66.303 85.3829C63.0819 84.52 60.4832 81.9315 59.4873 78.563L52.9361 86.0134C52.5782 86.4283 52.3759 86.8929 52.3137 87.4073L52.3137 87.4239C52.2047 87.7889 52.158 88.2535 52.158 88.8011C52.1736 91.622 52.0647 100.782 52.1113 102.657ZM94.9976 123.133C95.9157 122.701 96.9272 122.452 98.0009 122.452C102.093 122.452 105.392 125.987 105.392 130.334C105.392 134.698 102.078 138.216 98.0009 138.216C94.4063 138.216 91.403 135.478 90.7494 131.861C90.6561 131.363 90.6094 130.849 90.6094 130.334C90.6094 127.132 92.4145 124.361 94.9976 123.133Z" fill="white"/>
<circle cx="72" cy="72" r="8" fill="white"/>
</g>
<defs>
<clipPath id="clip0_22_2">
<rect width="147" height="144" fill="white" transform="translate(147 144) rotate(-180)"/>
</clipPath>
</defs>
</svg>
