<svg width="120" height="120" viewBox="0 0 120 120" fill="none" xmlns="http://www.w3.org/2000/svg">
<rect width="120" height="120" rx="5" fill="#121212"/>
<g clip-path="url(#clip0_30_2)">
<path d="M65.2705 93.1443C65.3721 94.1482 65.1519 94.9945 64.3051 95.4591C63.6784 95.8076 63.0602 95.5172 62.4843 95.1189C62.0693 94.8369 61.6544 94.5548 61.214 94.3059C57.1914 92.0243 53.1519 89.5519 49.1378 87.2703C47.207 86.1751 47.3255 86.2249 49.0108 84.9721C51.3142 83.2464 53.118 83.5451 55.6756 84.9472C58.1823 86.3245 60.0538 87.3616 62.3065 88.689C64.1865 89.6182 65.1689 90.6719 65.2705 93.1443Z" fill="white"/>
<path d="M30.6926 81.1568C29.8542 81.7459 28.9904 81.9782 28.1605 81.4887C27.5422 81.1236 27.4914 80.4516 27.5507 79.7713C27.5931 79.2735 27.6354 78.784 27.6354 78.2862C27.6523 73.7313 27.8302 69.0686 27.8556 64.5303C27.8641 62.3482 27.881 62.4727 29.8288 63.2775C32.5048 64.3809 33.14 66.0569 33.1654 68.9275C33.1993 71.7401 33.2162 73.8474 33.1485 76.4194C33.2755 78.4853 32.8351 79.8376 30.6926 81.1568Z" fill="white"/>
<path d="M27.5921 47.5093C26.6605 47.0862 26.0254 46.4723 26.0423 45.5264C26.0593 44.8212 26.6267 44.4396 27.2533 44.1575C27.7106 43.9501 28.1679 43.7344 28.6083 43.4938C32.6478 41.2371 36.8652 39.0716 40.8963 36.8315C42.8356 35.753 42.7339 35.8276 42.988 37.8769C43.3437 40.6978 42.175 42.0667 39.6514 43.5269C37.1785 44.954 35.3155 46.0159 33.012 47.2439C31.2421 48.3722 29.8193 48.6709 27.5921 47.5093Z" fill="white"/>
<path d="M53.1593 26.4569C53.0661 25.453 53.2948 24.6068 54.1417 24.1504C54.7768 23.8103 55.3865 24.1007 55.9624 24.4989C56.3774 24.7893 56.7923 25.0631 57.2242 25.3203C61.2299 27.6268 65.2524 30.1323 69.2411 32.4471C71.1635 33.5589 71.045 33.5091 69.3512 34.7453C67.0308 36.4544 65.2355 36.1474 62.6865 34.7204C60.1882 33.3266 58.3251 32.2812 56.0894 30.9288C54.2179 29.9913 53.244 28.9293 53.1593 26.4569Z" fill="white"/>
<path d="M87.5919 38.658C88.4303 38.0772 89.2941 37.8532 90.124 38.3427C90.7422 38.7078 90.7845 39.3798 90.7168 40.0602C90.666 40.558 90.6236 41.0475 90.6236 41.5453C90.5728 46.1001 90.3611 50.7629 90.3018 55.3012C90.2764 57.4832 90.2595 57.3587 88.3202 56.5457C85.6526 55.4256 85.0344 53.7414 85.0259 50.8707C85.0175 48.0582 85.0175 45.9508 85.0937 43.3788C84.992 41.3212 85.4493 39.9606 87.5919 38.658Z" fill="white"/>
<path d="M90.4856 72.3647C91.4171 72.7879 92.0438 73.4101 92.0184 74.3642C92.0014 75.0694 91.4256 75.4428 90.7904 75.7249C90.3331 75.9323 89.8758 76.1397 89.4355 76.3803C85.379 78.6038 81.1447 80.7444 77.0967 82.9513C75.149 84.0133 75.259 83.9386 75.0135 81.8893C74.6832 79.0684 75.8603 77.6995 78.3924 76.2642C80.8822 74.8537 82.7453 73.8083 85.0657 72.597C86.8356 71.477 88.2668 71.1866 90.4856 72.3647Z" fill="white"/>
<path d="M39.6033 92.0627C42.9907 92.0627 45.743 89.3663 45.743 86.0476C45.743 83.7909 44.4643 81.8163 42.5842 80.7875C42.6181 75.4776 42.6351 70.1761 42.6096 64.8662C42.6012 63.4143 43.2109 62.7505 44.405 61.8213C45.0994 61.2737 45.6584 60.7925 46.0987 60.3279C46.4967 59.9131 47.098 59.7388 47.6654 59.8716L51.6203 60.7676C51.1206 59.0751 51.5525 57.2249 52.7466 55.9058L47.6654 54.7525C47.4791 54.711 47.3013 54.711 47.1234 54.7359C46.8863 54.6447 46.556 54.7691 46.1495 54.9931C44.9046 55.6983 40.8228 57.9302 40.0098 58.4197C38.206 59.4982 37.4014 60.4855 37.4523 62.5929C37.5793 68.525 37.6047 74.4737 37.4269 80.4059C35.1065 81.2687 33.4635 83.4673 33.4635 86.031C33.4551 89.3663 36.2158 92.0627 39.6033 92.0627ZM37.4099 82.7372C38.0366 82.339 38.7903 82.0984 39.6033 82.0984C40.7804 82.0984 41.8305 82.5879 42.5673 83.3761C43.2279 84.0813 43.6259 85.0188 43.6259 86.0393C43.6259 88.2213 41.8221 89.9802 39.6033 89.9802C37.376 89.9802 35.5807 88.213 35.5807 86.0393C35.5722 84.662 36.3005 83.4424 37.4099 82.7372Z" fill="white"/>
<path d="M26.1393 62.0041C29.4336 62.0041 32.1351 59.4488 32.2791 56.2463C37.0045 53.6245 41.7216 50.9945 46.4216 48.3229C47.7004 47.5928 48.5896 47.7837 50.0038 48.3395C50.893 48.688 51.6383 48.9286 52.2988 49.0696C52.9001 49.1941 53.3743 49.6255 53.5437 50.198L54.6616 53.9232C55.6524 52.9442 56.9989 52.4132 58.3793 52.4132C58.7688 52.4132 59.1753 52.4547 59.5564 52.5459L58.0829 47.6177C57.9897 47.3107 57.7865 47.0618 57.5324 46.9042C57.4138 46.7383 57.1937 46.5889 56.9057 46.423C55.6608 45.7095 51.6552 43.3615 50.8168 42.9135C48.9622 41.9179 47.6919 41.7271 45.8458 42.8139C40.7307 45.8422 35.5479 48.7793 30.2805 51.5503C29.188 50.5713 27.7314 49.974 26.1393 49.974C22.7519 49.974 19.9996 52.6704 19.9996 55.9891C19.9996 59.3077 22.7519 62.0041 26.1393 62.0041ZM26.1393 52.0398C26.9185 52.0398 27.6468 52.2556 28.265 52.6372C29.4082 53.3341 30.1704 54.5703 30.1704 55.9891C30.1704 56.5698 30.0434 57.1257 29.8062 57.6235C29.1711 58.9842 27.7653 59.9383 26.1393 59.9383C23.9121 59.9383 22.1168 58.1711 22.1168 55.9974C22.1083 53.807 23.9121 52.0398 26.1393 52.0398Z" fill="white"/>
<path d="M45.7101 36.1601C46.8873 36.1601 47.9882 35.8365 48.9282 35.264C53.5859 37.9687 58.2606 40.6569 62.9522 43.3118C64.2309 44.0336 64.5019 44.8882 64.7221 46.3733C64.8576 47.2859 65.0185 48.0326 65.2133 48.6549C65.3911 49.219 65.2556 49.833 64.8491 50.2644L62.1053 53.1268C63.8583 53.5582 65.2726 54.8442 65.823 56.5284L69.3798 52.8032C69.5831 52.5958 69.7016 52.3386 69.7186 52.0731L69.7186 52.0648C69.8117 51.8823 69.8371 51.6168 69.8371 51.2932C69.8456 49.8828 69.9388 45.303 69.9134 44.3655C69.8625 42.2913 69.4052 41.1132 67.5252 40.0927C62.2069 37.1889 56.931 34.202 51.7652 31.041C51.8075 30.7423 51.8329 30.4437 51.8329 30.1367C51.8329 26.818 49.0722 24.1216 45.6932 24.1216C42.3058 24.1216 39.5535 26.818 39.5535 30.1367C39.5535 33.4553 42.3227 36.1601 45.7101 36.1601ZM45.7102 26.2041C47.8358 26.2041 49.5803 27.8219 49.7243 29.8712C49.7327 29.9624 49.7327 30.0537 49.7327 30.145C49.7327 31.9951 48.437 33.5466 46.684 33.9697C46.3707 34.0444 46.0489 34.0859 45.7101 34.0859C43.4829 34.0859 41.6876 32.3187 41.6876 30.145C41.6791 27.9629 43.4829 26.2041 45.7102 26.2041Z" fill="white"/>
<path d="M65.4416 63.9123L70.5312 65.0739C70.8446 65.1402 71.1579 65.0988 71.4204 64.966C71.5814 64.9245 71.7761 64.8333 71.9878 64.7171C73.2412 64.0202 77.34 61.8216 78.1615 61.3321C79.9653 60.2618 80.7783 59.2828 80.7529 57.1754C80.6682 51.1189 80.6936 45.054 80.9307 38.9974C83.0309 38.0433 84.4876 35.9525 84.4876 33.5382C84.4876 30.2195 81.7352 27.5231 78.3478 27.5231C74.9603 27.5231 72.208 30.2195 72.208 33.5382C72.208 35.9525 73.6731 38.0433 75.7733 38.9974C75.6971 44.2907 75.6378 49.584 75.6294 54.8773C75.6209 56.3292 75.0027 56.9846 73.8086 57.9055C73.0718 58.4697 72.479 58.9758 72.0302 59.4653C71.6322 59.8802 71.0309 60.0544 70.4635 59.9299L66.6103 59.0588C67.076 60.7513 66.6441 62.6015 65.4416 63.9123ZM74.3083 33.5465C74.3083 31.3645 76.1121 29.6056 78.3309 29.6056C80.5581 29.6056 82.3535 31.3728 82.3535 33.5465C82.3535 34.7744 81.7776 35.8779 80.8799 36.5997C80.1855 37.1555 79.2963 37.4957 78.3309 37.4957C77.3654 37.4957 76.4762 37.1638 75.7818 36.608C74.8841 35.8779 74.3083 34.7744 74.3083 33.5465Z" fill="white"/>
<path d="M60.1232 72.2006C60.2333 72.574 60.5127 72.8644 60.843 73.0137L60.8515 73.0137C60.9446 73.0801 61.0462 73.1464 61.1648 73.2128C62.4012 73.9346 66.3899 76.3158 67.2283 76.7721C69.0829 77.776 70.3448 77.9834 72.1994 76.9048C77.6278 73.7521 83.1323 70.6906 88.7301 67.8283C89.6955 68.4505 90.8472 68.8073 92.0837 68.8073C95.4711 68.8073 98.2234 66.1109 98.2234 62.7922C98.2234 59.4735 95.4711 56.7771 92.0837 56.7771C88.6962 56.7771 85.9439 59.4735 85.9439 62.7922C85.9439 63.0411 85.9609 63.2817 85.9863 63.5223C81.2015 66.1274 76.4337 68.7409 71.6743 71.3958C70.3871 72.1177 69.4979 71.9185 68.0921 71.3544C67.2114 71.0059 66.4746 70.7653 65.8225 70.616C65.2382 70.4832 64.7894 70.0518 64.62 69.4959L63.5529 65.9034C62.2742 67.1562 60.428 67.6789 58.6581 67.289L60.1232 72.2006ZM92.0752 58.843C94.3024 58.843 96.0978 60.6102 96.0978 62.7839C96.0978 64.9576 94.294 66.7248 92.0752 66.7248C91.6264 66.7248 91.186 66.6501 90.7795 66.5174C89.1874 65.9864 88.0441 64.5179 88.0441 62.7839C88.0441 62.6428 88.0526 62.5101 88.0695 62.369C88.2813 60.3861 90.0004 58.843 92.0752 58.843Z" fill="white"/>
<path d="M48.3599 75.3283C48.4192 77.4025 48.8934 78.5723 50.7819 79.5845C56.3204 82.5464 61.825 85.6162 67.1941 88.8685C67.1856 88.968 67.1856 89.0676 67.1856 89.1672C67.1856 92.4858 69.9464 95.1823 73.3253 95.1823C76.7128 95.1823 79.4651 92.4858 79.4651 89.1672C79.4651 85.8485 76.7128 83.1521 73.3253 83.1521C71.928 83.1521 70.6408 83.6084 69.6161 84.38C64.8737 81.6753 60.1228 78.9788 55.3465 76.3239C54.0593 75.6104 53.7798 74.7558 53.5427 73.279C53.3987 72.383 53.2463 71.6612 53.0515 71.0389C52.8737 70.483 53.0176 69.8857 53.4326 69.4626L56.0833 66.6915C54.3303 66.26 52.916 64.9658 52.374 63.2815L48.8087 67.0067C48.614 67.2142 48.5039 67.4465 48.47 67.7037L48.47 67.712C48.4107 67.8945 48.3853 68.1268 48.3853 68.4006C48.3938 69.811 48.3345 74.3908 48.3599 75.3283ZM71.6994 85.5664C72.199 85.3507 72.7495 85.2262 73.3338 85.2262C75.5611 85.2262 77.3564 86.9934 77.3564 89.1672C77.3564 91.3492 75.5526 93.1081 73.3338 93.1081C71.3776 93.1081 69.7431 91.7391 69.3874 89.9305C69.3366 89.6816 69.3112 89.4244 69.3112 89.1672C69.3112 87.5659 70.2936 86.1804 71.6994 85.5664Z" fill="white"/>
<ellipse cx="59.1836" cy="60" rx="4.35374" ry="4" fill="white"/>
</g>
<defs>
<clipPath id="clip0_30_2">
<rect width="80" height="72" fill="white" transform="translate(100 96) rotate(-180)"/>
</clipPath>
</defs>
</svg>
